<svg xmlns="http://www.w3.org/2000/svg" xmlns:xlink="http://www.w3.org/1999/xlink" viewBox="0 0 1333 1588.98107"><defs><style>.cls-1{fill:none;}.cls-2{fill:#76b828;}.cls-3{fill:#fff;}.cls-4{fill:url(#Unbenannter_Verlauf_18);}.cls-5{clip-path:url(#clip-path);}.cls-6{fill:#b2b2b2;fill-rule:evenodd;}.cls-7{fill:#1d1d1b;}.cls-8{fill:#0069b4;}</style><linearGradient id="Unbenannter_Verlauf_18" x1="-3794.12251" y1="4340.83908" x2="-3748.60541" y2="4340.83908" gradientTransform="translate(-3663.00304 -2633.00304) rotate(-90)" gradientUnits="userSpaceOnUse"><stop offset="0" stop-color="#333" stop-opacity="0"/><stop offset="0.27853" stop-color="#333" stop-opacity="0.07955"/><stop offset="0.5606" stop-color="#333" stop-opacity="0.31788"/><stop offset="0.84343" stop-color="#333" stop-opacity="0.71377"/><stop offset="1" stop-color="#333"/></linearGradient><clipPath id="clip-path"><rect class="cls-1" width="1333" height="1130.27781"/></clipPath></defs><g id="Submarke"><path class="cls-2" d="M164.14868,866.57517c11.24544,385.27009,30.39476,719.21692,30.39476,719.21692s238.20434-42.53184,533.315-66.66437c311.23922-25.44914,477.82107-42.67769,477.82107-42.67769s-23.52417-233.15448-39.24871-660.37724c-7.89551-214.45923-1010.736-239.046-1002.28212,50.50238"/><path class="cls-3" d="M397.11707,1383.4873l12.82129-1.34765,15.09961,39.95312a73.73286,73.73286,0,0,0,9.47852.47754q3.81446-.10547,9.06347-.6582,20.25-2.12843,29.73438-12.125,9.479-9.99317,7.73242-26.63184a31.88585,31.88585,0,0,0-5.97559-16.042q-5.001-6.70312-16.708-14.0332l-28.124-17.10547a100.63764,100.63764,0,0,1-13.86621-9.46191,57.8698,57.8698,0,0,1-9.45605-9.77735,38.09993,38.09993,0,0,1-5.73047-10.90625,62.1512,62.1512,0,0,1-2.71192-13.13769q-2.76123-26.26758,13.11231-42.68946,15.87452-16.418,47.18359-19.71289,5.55322-.583,10.7002-.68164,5.14746-.0996,10.92383.17774,5.77441.27539,12.79,1.15918,7.0122.88623,16.32519,2.55664l.40723,45.916-12.82129,1.34766-14.21094-37.10059a62.852,62.852,0,0,0-7.4082-.39941q-3.23877.0498-9.06348.65723-19.96288,2.09765-29.41992,10.89941-9.46,8.80371-7.89844,23.66309.85694,8.1621,4.33789,13.24218,3.47609,5.0918,12.05274,10.96094l41.542,28.041a76.32094,76.32094,0,0,1,11.56152,9.09668,49.95628,49.95628,0,0,1,7.43653,9.08789,37.014,37.014,0,0,1,4.26171,9.71582,67.6328,67.6328,0,0,1,2.03809,10.98242,57.7198,57.7198,0,0,1-2.24219,23.50976,55.36282,55.36282,0,0,1-11.15234,20.02735,64.45955,64.45955,0,0,1-18.78906,14.64355,69.6332,69.6332,0,0,1-25.44532,7.3877q-6.70605.70605-12.88086.77832-6.18017.063-13.001-.36817-6.82764-.43652-14.44824-1.51074-7.626-1.07665-17.25-2.95215Z"/><path class="cls-3" d="M550.59949,1235.66406l-32.51269-1.0039.33887-7.98828,65.01367-17.73536-1.93457,107.73731q10.38135-21.709,24.73535-35.1543,14.34522-13.43994,29.21094-15.002,9.32226-.97852,15.05957,3.13086,5.73486,4.11327,6.65332,12.85351.33837,3.20947.39062,7.91407.05274,4.71093-.04,9.43164l-1.94433,76.80273q-.28125,2.97949-.33106,6.66406a50.233,50.233,0,0,0,.12989,5.43653q.21386,2.042,3.95605,4.00293l17.916-25.7461,6.99316,4.86328q-7.79736,21.14649-19.07617,32.93946-11.28516,11.792-24.97656,13.23047-16.02979,1.68456-17.52832-12.59375a69.90985,69.90985,0,0,1-.32813-7.33008q.00879-4.12354.04-9.43164l2.251-79.48828a57.64929,57.64929,0,0,0,.15527-6.93946c-.085-2.64355-.19336-4.64258-.33594-6.00488q-.58154-5.53125-4.0791-5.16895-9.32959.98-38.91406,36.20313l-1.65625,93.56641-32.63574,3.42968Z"/><path class="cls-3" d="M754.8866,1253.376a53.27484,53.27484,0,0,1,20.50391,1.6748,48.078,48.078,0,0,1,17.4668,9.21094,51.60061,51.60061,0,0,1,12.9414,16.6123,68.90617,68.90617,0,0,1,6.667,24.19434q2.35839,22.44141-1.77735,40.54883a94.928,94.928,0,0,1-12.90332,31.40625,68.28551,68.28551,0,0,1-21.64258,21.13086,66.06134,66.06134,0,0,1-27.7373,9.39648,59.11,59.11,0,0,1-21.36328-1.4375,44.07228,44.07228,0,0,1-17.77344-9.32617,52.25124,52.25124,0,0,1-12.87207-17.35547,76.92045,76.92045,0,0,1-6.62891-25.22949q-2.44922-23.31006,1.97754-41.4541,4.4253-18.14356,13.56153-30.74024a68.459,68.459,0,0,1,22.07324-19.84961A70.8701,70.8701,0,0,1,754.8866,1253.376Zm-2.67089,13.832q-7.86768.82764-13.89649,7.94238-6.03222,7.11768-9.6416,18.98535a126.37233,126.37233,0,0,0-4.71289,28.041,204.226,204.226,0,0,0,.8916,35.11328,100.67622,100.67622,0,0,0,3.43262,18.6416,34.29892,34.29892,0,0,0,5.62695,11.48731,16.10468,16.10468,0,0,0,7.50586,5.54589,22.5488,22.5488,0,0,0,9.36328.78321q8.15478-.85693,13.9336-8.97657,5.77587-8.11962,9.15136-20.84863a141.19283,141.19283,0,0,0,4.23047-28.43262,201.831,201.831,0,0,0-.86133-32.02246q-2.11377-20.10643-8.03222-28.76465Q763.28455,1266.0459,752.21571,1267.208Z"/><path class="cls-3" d="M878.23621,1437.80273l33.15625,7.1211-.37011,7.69922-92.66309,9.73828.07813-7.668,27.4541-13.49121,2.72363-153.48535q.06006-5.0127.1543-9.73828a62.95194,62.95194,0,0,0-.09082-6.47266q-.2461-2.32911-4.27832-4.26465L826.71375,1292.375l-6.96191-4.57129q9.67822-22.81641,20.03418-33.62891,10.35351-10.81055,23.75781-12.21972,16.02246-1.6831,17.62012,13.4668.12158,1.16893.19043,6.02148.06738,4.853.00586,9.86914l-.33985,13.58789q12.59619-23.124,25.53321-35.97559,12.936-12.8496,26.05078-14.22753,13.11327-1.37843,22.38281,9.72656,9.2666,11.10938,11.44336,31.793,2.93994,27.97558-2.39258,48.71679-5.33349,20.74219-15.80176,34.65723a74.69828,74.69828,0,0,1-24.55761,21.43652,77.8998,77.8998,0,0,1-28.65723,9.05078,69.14077,69.14077,0,0,1-7.91309.39063,35.79771,35.79771,0,0,1-8.06738-1.06836Zm.93067-64.02929a42.38535,42.38535,0,0,0,8.44922,1.91113,45.92217,45.92217,0,0,0,9.10937-.2207q21.85547-2.29687,30.332-26.75879,8.47852-24.457,3.91406-67.877-2.32617-22.14256-10.77734-21.25878a12.55321,12.55321,0,0,0-4.2793,1.335,32.14025,32.14025,0,0,0-6.27343,4.78418q-4.03419,3.6665-10.95215,10.72558-6.92139,7.06641-18.02246,19.12891Z"/></g><g id="Schatten_auf_Fähnchen" data-name="Schatten auf Fähnchen"><polygon class="cls-4" points="1180.075 1115.602 1182.652 1161.119 174.327 1158.691 173.021 1125.646 1180.075 1115.602"/></g><g id="NABU-Logo"><rect class="cls-3" x="0.00417" y="0.00407" width="1332.99583" height="1094.83329"/><g class="cls-5"><path class="cls-6" d="M402.152,635.1086c-90.53854,79.92228-135.99532,176.57728-157.51545,294.03156h-50.6774c22.70754-123.68741,83.12632-238.16263,178.848-321.02229Zm636.39894,76.739-3.6499,1.09163c-55.82726-86.84283-130.608-145.55745-229.14213-177.00226l12.3871-21.51173c98.15076,36.99455,171.2524,105.813,220.40493,197.42236"/><path class="cls-3" d="M456.75847,603.20176c-2.26245-2.86655,1.81659-5.06231,1.83325-5.27482L446.26714,582.2192a6.193,6.193,0,0,1,1.11245-7.9706l6.20815-4.23315c9.73715-6.62063,19.79931-13.45792,29.31147-20.93263,13.07872-11.21215,25.16581-22.49507,30.199-35.50293a72.21381,72.21381,0,0,1-12.12873,13.74535,2.3819,2.3819,0,0,1-1.56665.59577,2.3202,2.3202,0,0,1-1.38325-.45412c-3.9832-2.87492-7.87057-5.929-11.74127-8.97466l-2.13743-1.67911c-20.99512-16.53277-35.99459-37.22374-50.49411-57.2314l-6.39976-8.79136c-7.40391-10.65383-18.45354-13.15791-30.149-15.80782-7.14977-1.61661-14.54536-3.29153-21.10345-6.94556-5.51647-2.91242-11.95794-9.17467-11.80793-17.14107.04584-2.45824.13748-7.57891,4.64566-10.14135a6.89117,6.89117,0,0,1,2.87492-.66246,10.31184,10.31184,0,0,1,3.354.68745,6.81933,6.81933,0,0,0,2.02493.47084c.95412-.12918,1.33329-.67912,2.05824-1.91662a9.58071,9.58071,0,0,1,2.52909-3.1207,9.17474,9.17474,0,0,1,5.52483-1.8041c3.654,0,7.23308,1.97073,10.39129,3.71653,1.18748.65414,2.3416,1.29161,3.44157,1.78325,7.54556,4.60818,15.44527,6.904,23.8075,9.333,10.283,2.98738,20.9201,6.07063,30.65312,13.512,7.67055,5.86649,16.33693,13.20787,24.71165,20.30767,5.8498,4.95818,11.50375,9.75378,16.47441,13.74535,9.4497,7.57471,37.25289,25.72829,58.32716,30.3073a39.76675,39.76675,0,0,0,8.34558.9,45.135,45.135,0,0,0,28.08652-10.52051c2.23324-2.104,4.554-4.19564,6.89559-6.31641,10.74544-9.72467,21.84926-19.77853,27.324-31.88227,1.84161-4.07072,4.329-4.9248,6.09149-4.9248.175,0,1.09993.10414,1.27075.14578a2.39153,2.39153,0,0,1,.92084.4292,9.81931,9.81931,0,0,0,6.08729,1.67078,30.20022,30.20022,0,0,0,7.40807-1.09579,2.30728,2.30728,0,0,1,.58331-.075,2.34847,2.34847,0,0,1,1.5.53747,2.38039,2.38039,0,0,1,.86247,1.94574c-.32087,6.13313-1.425,12.39957-7.2581,16.6661a48.11217,48.11217,0,0,1-12.33294,6.21234c-4.94565,1.87492-9.62046,3.64984-14.6953,8.583l-4.529,4.36234c-13.6037,13.07036-26.46158,25.41995-28.99484,40.12364-9.783,25.29077-32.78219,46.21506-55.51058,65.51855a10.04527,10.04527,0,0,0-.71663,4.02074l2.66657-2.05828a2.36174,2.36174,0,0,1,3.11657.20415,3.03791,3.03791,0,0,1,.89162,2.40826,76.58786,76.58786,0,0,0-1.2041,12.4037c-.35835,8.04975-.73332,16.387-5.34151,22.96171a9.00082,9.00082,0,0,1-7.32056,3.92071,7.99222,7.99222,0,0,1-1.175-.07915l-27.04073-3.84156c-.2.4,3.03741,5.029-3.12489,4.07905a63.23858,63.23858,0,0,1-14.07035-4.29988l-24.395,18.74519,17.5369-24.645s-7.99556-7.32476-10.12462-10.01218"/><path class="cls-3" d="M711.61678,573.684c-6.31648,0-10.94132-3.854-15.41619-7.57884-4.404-3.66243-8.54551-7.12479-14.237-7.22892l-2.94574-.02086a235.62971,235.62971,0,0,0-25.88247,1.69157,197.72083,197.72083,0,0,1-20.98259,1.45418,97.7561,97.7561,0,0,1-10.76216-.57918c-16.49527-1.80829-33.05716-5.56234-53.70229-12.17457a2.3573,2.3573,0,0,1-1.12078-3.72905,122.14578,122.14578,0,0,0,20.07847-34.81962,2.36843,2.36843,0,0,1,2.22491-1.56244,2.35066,2.35066,0,0,1,.83749.1583c24.08663,9.1247,53.07314,13.75787,86.14289,13.75367,7.61222,0,15.5619-.24578,23.65329-.72909.05,0,.1-.00419.13752-.00419a2.32793,2.32793,0,0,1,1.2541.36251A182.0287,182.0287,0,0,1,724.258,539.29357a8.64117,8.64117,0,0,1,2.64572,9.49553,14.62081,14.62081,0,0,1-1.15,2.29993c-.99992,1.75407-1.12911,2.23324-.77079,2.8374a8.40274,8.40274,0,0,0,1.5791,1.61242c1.50415,1.31246,3.56236,3.1041,3.43324,6.10394-.29169,6.9331-6.94143,9.1247-11.32882,10.57468l-1.36657.45832a17.39144,17.39144,0,0,1-5.68313,1.00825"/><path class="cls-7" d="M826.22987,603.68881a4.22631,4.22631,0,0,0-2.46656-2.21241c-20.5951-8.37469-40.11112-15.22864-56.43975-29.09065a147.605,147.605,0,0,0,29.31984,8.383c7.94974.98747,19.25771,2.52493,25.52415-1.42493a1.20563,1.20563,0,0,0-.45419-2.13743c-30.70306-5.39564-61.39786-16.04947-116.75427-58.80217a6.27214,6.27214,0,0,0-4.68734-1.22912c-32.89472,1.99578-76.34326.43334-108.93377-12.82037,0,0,2.54571-6.13313,13.7037-17.4744,6.08309-6.1831,12.3496-12.9537,17.616-16.912,3.81654-2.86651,15.52865-6.6039,21.53679-10.44542,6.01226-3.84992,75.55568-48.58588,75.55568-48.58588s-47.36916,15.99531-64.33107,21.69509c-1.14164.37917-1.64579.20834-1.9708,0-5.82064-3.82486-11.8996-7.64553-19.47018-6.41228-10.79961,2.67077-12.37871,13.06209-17.72851,19.90765-8.30806,10.62464-24.20336,24.39917-28.349,28.18653-6.08728,5.554-17.18278,9.433-27.86992,8.34976-22.61167-4.00408-41.7777-16.39112-60.38537-30.06984-11.53293-8.82888-27.18658-24.12414-41.90273-34.3988a76.106,76.106,0,0,0-24.12417-11.62877c-35.2863-10.7038-83.78046-34.44464-124.99987-74.01-1.82075-1.74993-3.17489-1.21246-3.30405-.175-.64164,4.92905,5.16232,13.17875,9.22467,19.1577,7.14561,9.358,17.31193,17.55775,25.62829,24.395-19.63265-6.76641-36.61122-19.86181-53.97312-32.28636-1.92079-1.375-4.5332-2.06241-4.84151-.11253-.63332,3.88322,1.69993,8.53305,4.59982,11.9413,15.39114,18.1452,34.503,27.17822,53.97316,35.49461-20.6993-2.03329-39.332-8.47889-58.90631-16.01616-2.10825-.81244-5.4123-1.97073-6.58312-.75827-.85827.88746.53334,4.23315,2.39161,5.68313,17.20773,13.44539,37.03206,18.42855,57.43134,23.17006a144.98739,144.98739,0,0,1-52.25653-4.19158c-3.33737-.89159-10.57045-2.31658-10.57045-.31661,0,3.2874,4.49149,5.97476,7.61638,7.46638,15.95363,7.60809,32.90722,9.058,50.52327,10.84965a139.936,139.936,0,0,1-25.13663,2.21238c-9.033.12086-18.116-1.10826-26.78658-.79578-1.48746.05-3.06656,1.025-.8208,2.27907,15.237,8.47889,33.403,7.51642,51.51489,7.88726-7.2706,2.64571-15.17864,3.68735-23.17419,4.679-6.60813.825-13.562-.87913-19.71183.74161-1.11662.29169-.76664,2.15409,1.47909,3.204,12.09542,5.63316,25.38664,4.43735,38.19872,4.19157l-.49583.49163c-5.17064,4.62065-11.4746,3.879-18.72853,6.16231-1.06662.33333-.85412,1.79157.25,2.46243,10.07881,6.09141,20.88678-3.57489,30.80726,1.48323,10.86214,5.52482,23.13671,13.89538,40.44028,30.41563,24.47416,23.38253,55.01479,51.23159,91.91766,70.63928-9.12469,7.51635-17.3119,12.36205-27.28238,18.55348a7.378,7.378,0,0,0-1.77495,10.78715c4.60819,6.07062,16.4911,20.94927,16.4911,20.94927,2.09159-1.61244,5.4748-4.39568,3.69571-6.65807-3.04574-3.88322-12.32457-15.7745-12.32457-15.7745a3.76906,3.76906,0,0,1,.74164-4.68734c11.89125-8.133,23.96168-16.08278,35.48628-25.145,16.39526-14.0453,34.578-30.62391,33.528-52.00652A64.79686,64.79686,0,0,1,499.3995,525.554c-4.68734-3.3874-9.24552-7.02891-13.80371-10.5996-23.78251-18.7327-39.74444-42.82772-56.448-65.56445-12.63289-18.17437-35.30712-14.11618-52.00239-23.41584-5.48312-2.89989-10.72046-8.50807-10.59547-15.037.05417-3.13735.42917-6.41228,3.44989-8.1289,2.95407-1.23745,4.92483,1.22918,7.88722.73748,2.83324-.49576,3.16657-3.96231,5.179-5.42482,5.32065-3.87484,11.75792,1.6,16.99939,3.94572,16.76193,10.28713,36.93209,9.52466,53.98981,22.56176,13.00789,9.94127,29.09068,24.34081,41.14442,34.01964,9.3955,7.53307,37.39454,26.01579,59.3063,30.76975,20.691,4.49572,36.45708-8.24137,38.54867-10.20377,12.59125-11.81212,27.86153-23.69507,34.753-38.94869.79992-1.76246,2.22491-4.004,4.69148-3.4457,4.24567,3.26654,10.96211,2.15409,15.52032.98746-.30834,5.91233-1.34165,11.26213-6.29149,14.88285-9.36215,6.86641-17.70353,5.69979-27.28235,15.00778-15.56616,15.112-31.24892,28.649-34.203,45.77345-9.66217,24.84078-33.44472,46.05676-54.7148,64.1228-2.16241,1.83328-1.4791,10.56628-1.4791,10.56628l6.40393-4.93319.25418.25418c-2.41243,11.33715.38746,25.13246-6.17064,34.503a6.56267,6.56267,0,0,1-6.23313,2.85406c-8.87468-1.22911-19.17016-2.74156-27.04072-3.84152-2.64576-.375-3.07906,3.94153-3.4499,6.41645,10.22883,1.59576,20.62431,3.28739,30.28648,4.604,9.96215,1.36247,16.14112-10.39129,17.51608-20.12845,1.14576-8.15389.64161-17.00355,2.02489-25.07829,21.6284,7.82469,44.76928,12.99953,67.9893,17.4202,31.524,6.02479,70.59758-3.26237,96.62169,14.54536,8.37476,5.73729,11.858,16.27859,15.52033,21.69089,1.3583,2.00411,3.67069,5.42066,6.32474,4.43736.575-.20415.73748-1.31247.34166-2.21658-2.51654-5.729-5.7373-11.95377-4.44569-18.73687,0,0,6.04984,10.87463,8.39141,14.29535,4.26653,6.28313,11.29964,16.27859,17.991,16.27859,1.05,0,1.1375-1.34994.72915-1.97909-8.04968-12.30372-15.3411-24.03666-17.741-37.71121,6.84562,11.08713,13.30787,22.43257,23.41584,32.04474,3.57488,3.39572,7.38309,7.14976,11.33714,6.84558.7-.05413,1.4749-.9833.4-2.48741-11.18291-15.74109-20.35764-27.89484-26.03658-43.54849,9.058,12.32458,19.85762,25.6658,32.53221,34.74879,3.98737,2.86659,9.008,5.84564,13.24119,4.59986a1.34957,1.34957,0,0,0,.55419-2.13326c-14.69956-15.2953-29.38233-30.74477-37.20289-48.5525,11.1496,11.08713,22.69921,21.53676,34.99877,29.32817,6.1831,3.9207,15.94527,8.27471,20.64927,6.23312a1.30226,1.30226,0,0,0,.3-2.04162c-16.79108-13.62868-34.878-27.11571-49.04833-44.6151,5.179,2.8999,10.39546,7.06642,15.77444,10.11216,16.012,9.04968,35.12383,18.3535,52.7524,15.76611,1.44992-.20417,3.85818-1.75829,3.19985-3.44573M716.52536,570.43994c-14.69955,5.11235-20.07847-13.66619-34.528-13.9203-24.67414-.44586-39.86113,4.7998-60.348,2.554-18.641-2.04156-36.10709-6.59144-53.23983-12.07456a124.94167,124.94167,0,0,0,20.46184-35.4988c33.1405,12.56206,71.68084,15.51613,110.77118,13.17875,8.133,5.079,15.66191,10.00383,23.06166,16.40359a6.26859,6.26859,0,0,1,1.97493,6.89972c-.8291,2.28328-3.304,4.4874-1.73328,7.14564,1.3208,2.20825,4.82073,3.454,4.69154,6.40809-.24585,5.8998-6.66646,7.36644-11.11209,8.90383"/><path class="cls-7" d="M493.97175,575.59272a431.95517,431.95517,0,0,1-35.24462,52.00239l.24582.24582c18.42852-15.587,36.17792-32.71966,54.22313-49.04829l.25415,10.35381L481.893,618.47878l-56.93554,49.78161V651.7526c29.2115-27.41986,50.96076-58.41464,67.78515-91.201Z"/><path class="cls-8" d="M812.96243,860.43168h26.93662c20.22012,0,29.69061,7.07474,28.3365,18.44934-2.69155,12.32874-12.14125,16.70359-35.06546,16.70359h-25.6033Zm10.76629-63.58532h25.63662c16.17866,0,24.26585,4.44569,21.58262,14.50365-1.35,10.6413-10.82879,15.6703-25.65747,15.6703H818.33308Zm-167.18588-5.60814h1.36663c1.34991,13.512,1.35824,23.57418,2.69989,34.04049l2.66244,34.57383H628.23965l14.84114-34.49048c4.04153-9.983,8.07054-20.52014,13.462-34.12384M973.1653,763.435,955.8534,861.2233c-9.4455,53.34815,14.5953,71.02671,71.2142,71.02671,59.34372,0,87.66369-18.82018,95.755-70.735l16.16194-98.08h-49.8649l-16.212,100.23823c-4.03314,23.98668-14.80356,35.4946-39.04856,35.4946-26.97407,0-31.04059-12.15791-26.9824-35.4946L1023.04692,763.435Zm-195.27666,0L750.91457,929.00846h84.9596c44.49011,0,78.214-11.02879,83.59711-46.67338,4.05819-22.17423-6.7664-37.932-40.47363-40.76525v-1.08331c24.27-1.49578,40.4653-14.687,44.52349-35.90711,5.38731-31.36139-18.91185-41.14442-71.485-41.14442Zm-150.974,0L546.00078,929.00846h53.93981l14.837-35.69876h51.19822l2.69994,35.69876h53.944L697.01647,763.435Zm-248.09976,0L351.8408,929.00846h47.20671c8.0914-56.03556,14.81616-93.60926,16.16614-112.78776h1.37492c4.0457,18.9535,13.47038,56.64386,31.00311,112.78776h70.10594L546.00078,763.435H498.8316c-9.44136,55.84391-14.84533,93.45929-17.54109,112.78779h-1.3666c-2.69575-19.02016-13.45372-56.91886-29.63647-112.78779Z"/><rect class="cls-8" y="1094.83736" width="1332.93744" height="35.44045"/></g></g></svg>