<?xml version="1.0" encoding="UTF-8"?><svg version="1.1" width="40px" height="40px" viewBox="0 0 40.0 40.0" xmlns="http://www.w3.org/2000/svg" xmlns:xlink="http://www.w3.org/1999/xlink"><defs><clipPath id="i0"><path d="M20,0 C31.045695,-2.02906125e-15 40,8.954305 40,20 C40,31.045695 31.045695,40 20,40 C8.954305,40 1.3527075e-15,31.045695 0,20 C-1.3527075e-15,8.954305 8.954305,2.02906125e-15 20,0 Z"></path></clipPath><clipPath id="i1"><path d="M9,0 L9,3.75 L6.83625,3.75 C6.144,3.75 6,4.0335 6,4.74975 L6,6 L9,6 L8.7315,9 L6,9 L6,18 L2.25,18 L2.25,9 L0,9 L0,6 L2.25,6 L2.25,3.46125 C2.25,1.18725 3.447,0 6.144,0 L9,0 Z"></path></clipPath></defs><g transform="translate(-1403.0 -28.0)"><g transform="translate(1403.0 28.0)"><g clip-path="url(#i0)"><polygon points="0,0 40,0 40,40 0,40 0,0" stroke="none" fill="#D6E9E3"></polygon></g><g transform="translate(16.0 11.0)"><g clip-path="url(#i1)"><polygon points="0,0 9,0 9,18 0,18 0,0" stroke="none" fill="#165741"></polygon></g></g></g></g></svg>