<?xml version="1.0" encoding="UTF-8"?><svg version="1.1" width="40px" height="40px" viewBox="0 0 40.0 40.0" xmlns="http://www.w3.org/2000/svg" xmlns:xlink="http://www.w3.org/1999/xlink"><defs><clipPath id="i0"><path d="M20,0 C31.045695,-2.02906125e-15 40,8.954305 40,20 C40,31.045695 31.045695,40 20,40 C8.954305,40 1.3527075e-15,31.045695 0,20 C-1.3527075e-15,8.954305 8.954305,2.02906125e-15 20,0 Z"></path></clipPath><clipPath id="i1"><path d="M9.98650501,0.000830223031 C11.5541139,0.0040295858 11.8988077,0.0173076923 12.71175,0.05475 C15.98325,0.20475 17.799,2.02425 17.946,5.28975 C17.9526923,5.43744231 17.9586036,5.56965533 17.9638157,5.69655655 L17.9711197,5.88419549 C17.9892535,6.38072076 17.9968566,6.87359741 17.9991725,8.01354552 L17.9999521,8.72730156 L18,9 L17.9999882,9.13866278 L17.9991698,9.98650228 C17.9959704,11.5540962 17.9826923,11.8986923 17.94525,12.711 C17.7975,15.9825 15.9765,17.796 12.711,17.946 C12.5198688,17.9546606 12.3546316,17.9620132 12.1932642,17.9682352 L11.9513624,17.9767426 C11.5031022,17.9908664 11.0008277,17.9971121 9.98650228,17.9991725 L9.27270168,17.9999521 L9,18 L8.86133803,17.9999882 L8.01354279,17.9991725 C7.01607863,17.9971461 6.51399511,17.9910717 6.07124351,17.9774365 L5.88385412,17.9711197 C5.69755473,17.9643195 5.51071154,17.9560385 5.289,17.946 C2.0175,17.796 0.204,15.9795 0.054,12.711 C0.0453393665,12.5198688 0.0379868144,12.3546316 0.0317647759,12.1932642 L0.0232574076,11.9513624 C0.00913363693,11.5031022 0.00288794881,11.0008277 0.000827492035,9.98650228 L0.000830223031,8.01354279 C0.0040295858,6.44609911 0.0173076923,6.10194231 0.05475,5.289 C0.20475,2.0175 2.02125,0.204 5.28975,0.054 C5.43744231,0.0473076923 5.56965533,0.0413964497 5.69655655,0.0361843423 L5.88419549,0.0288802913 C6.38072076,0.0107464725 6.87359741,0.00314337733 8.01354552,0.000827492035 L9.98650501,0.000830223031 Z M9,4.378425 C6.44775,4.378425 4.3785,6.447675 4.3785,8.999925 C4.3785,11.552175 6.44775,13.622175 9,13.622175 C11.55225,13.622175 13.6215,11.552925 13.6215,8.999925 C13.6215,6.447675 11.55225,4.378425 9,4.378425 Z M9,6 C10.65675,6 12,7.34325 12,9 C12,10.6575 10.65675,12 9,12 C7.34325,12 6,10.6575 6,9 C6,7.34325 7.34325,6 9,6 Z M13.804725,3.1161 C13.207725,3.1161 12.723975,3.59985 12.723975,4.1961 C12.723975,4.79235 13.207725,5.2761 13.804725,5.2761 C14.400975,5.2761 14.883225,4.79235 14.883225,4.1961 C14.883225,3.59985 14.400975,3.1161 13.804725,3.1161 Z"></path></clipPath></defs><g transform="translate(-1459.0 -28.0)"><g transform="translate(1403.0 28.0)"><g transform="translate(56.0 0.0)"><g clip-path="url(#i0)"><polygon points="0,0 40,0 40,40 0,40 0,0" stroke="none" fill="#D6E9E3"></polygon></g><g transform="translate(11.0 11.0)"><g clip-path="url(#i1)"><polygon points="0.000827492035,0.000827492035 18,0.000827492035 18,18 0.000827492035,18 0.000827492035,0.000827492035" stroke="none" fill="#165741"></polygon></g></g></g></g></g></svg>